<?xml version="1.0" encoding="UTF-8"?>
<svg version="1.1" viewBox="0 0 2048 2048" width="1280" height="1280" xmlns="http://www.w3.org/2000/svg">
<path transform="translate(1405,862)" d="m0 0h52l36 4 29 6 25 7 28 10 24 11 16 8 19 11 12 8 14 10 14 11 15 13 16 15 1 3h2l7 8 10 11 13 17 13 18 11 18 6 10 8 16 10 22 8 21 9 31 6 28 4 31 1 12v46l-4 36-3 15v3l34 12 20 9 16 8 14 8 21 14 18 14 12 11 8 7 10 10 7 8 11 13 13 18 14 22 15 29 11 28 7 24 6 26 2 12h2v87l-2 2-7 36-7 24-8 22-10 22-13 23-14 21-12 16-9 10-7 8-18 18-8 7-16 13-15 10-21 13-21 11-24 10-24 8-29 7-27 4-27 2h-1089l-31-2-28-4-27-6-24-7-22-8-23-10-20-10-22-13-20-14-13-10-14-12-8-7-24-24-9-11-11-13-13-19-10-15-9-16-10-19-10-23-9-25-8-29-5-27-4-33-1-19v-16l2-31 4-29 7-31 7-23 7-20 12-27 11-21 11-18 8-12 14-19 2-3h2l2-4 12-14 12-13 8-8 8-7 14-12 20-15 15-10 20-12 21-11 23-10 25-9 25-7 28-6 30-4 16-1h38l33 3 13 1 14-28 11-18 10-14 10-13 12-14 18-18 8-7 18-14 15-10 19-11 16-8 18-8 27-9 21-5 23-4 21-2h34l29 3 26 5 24 7 17 6 12-18 8-11 13-16 9-11 27-27 11-9 16-13 16-11 11-7 15-9 27-14 24-10 27-9 27-7 35-6zm6 81-27 3-29 6-26 8-24 10-20 10-20 12-11 8-13 10-14 12-22 22-9 11-12 16-10 15-9 16-7 13-7 9-9 7-8 3-6 1h-10l-12-3-17-9-25-10-26-7-20-3-14-1h-20l-22 2-29 6-23 8-25 12-19 12-16 13-8 7-14 14-9 11-12 17-10 17-8 17-9 25-7 14-5 6-10 6-10 3h-13l-34-7-23-3-16-1h-27l-31 3-29 6-23 7-21 8-23 11-19 11-16 11-12 9-15 13-7 7-4 3v2h-2l-7 8-10 11-15 20-9 14-11 19-9 19-8 20-8 26-5 24-3 20-1 13v37l2 21 5 28 7 26 10 26 12 25 9 16 13 19 8 10 11 13 12 13 16 15 14 11 15 11 20 12 23 12 25 10 26 8 26 5 23 3 17 1h1083l20-1 26-4 23-6 22-8 25-12 18-11 16-12 13-11 21-21 11-14 14-21 14-27 8-21 6-22 4-20 2-18v-35l-3-25-4-20-6-20-8-20-8-17-12-20-14-19-14-15-15-15-14-11-16-11-15-9-23-11-22-8-24-6-25-5-9-4-8-6-7-10-4-13 1-13 9-35 5-27 2-24v-31l-3-29-5-26-7-24-8-22-14-29-10-17-11-16-11-14-12-14-18-18-11-9-17-13-17-11-16-9-16-8-19-8-24-8-25-6-27-4-12-1z"/>
<path transform="translate(797,422)" d="m0 0h51l34 3 32 5 27 6 31 9 28 10 25 11 23 11 21 12 19 12 20 14 18 14 14 12 12 11 8 7 6 7 14 14 7 8 9 11 11 14 13 18 11 17 14 24 11 21 9 20 11 28 9 28 7 27v18l-5 12-9 10-9 6-11 3h-13l-12-4-8-6-7-8-5-10-9-32-8-24-11-26-8-17-10-18-12-19-13-19-11-13-8-10-12-13-19-19-11-9-12-10-19-14-22-14-22-12-27-13-24-9-21-7-28-7-30-5-31-3h-46l-30 3-24 4-30 7-36 12-23 10-16 8-19 10-19 12-17 12-16 13-11 9-15 14-10 10-7 8-9 10-13 17-11 15-10 16-10 17-8 15-13 30-7 19-9 31-7 34-4 34v57l4 34 5 26 8 30 11 31 11 24 8 16 12 21 8 13 4 11v17l-5 12-9 10-9 6-10 3h-15l-11-4-10-7-6-8-13-21-14-25-13-28-11-28-9-28-7-27-5-25-4-28-2-21-1-19v-28l2-30 4-31 7-36 9-32 8-24 12-29 14-29 10-18 14-22 11-16 10-13 8-10 14-17 8-8 1-2h2l2-4 12-12h2l1-3 8-7 11-10 10-8 17-13 10-7 18-12 22-13 27-14 25-11 21-8 24-8 31-8 32-6 33-4z"/>
<path transform="translate(139,470)" d="m0 0h12l12 4 16 9 24 14 21 12 24 14 28 16 17 10 12 9 7 10 3 7 1 5v12l-3 10-6 10-9 8-7 4-11 3h-10l-12-4-20-11-27-16-28-16-26-15-28-16-11-8-8-9-4-8-2-7v-12l3-10 5-9 5-5 7-6 9-4z"/>
<path transform="translate(269,1178)" d="m0 0h12l8 2 8 4 10 9 6 10 2 5 1 6v10l-3 10-6 10-7 7-15 9-26 15-21 12-24 14-49 28-10 4-12 2-11-2-10-5-8-7-8-13-2-7v-13l4-13 7-9 8-7 26-15 24-14 28-16 24-14 26-15 10-5z"/>
<path transform="translate(1496,470)" d="m0 0h11l10 3 10 6 7 7 6 12 2 8v9l-3 11-6 10-8 8-26 15-24 14-49 28-17 10-15 9-15 6-10 1-14-3-11-7-7-8-5-9-2-8v-12l3-10 6-10 9-8 22-13 78-45 24-14 15-8z"/>
<path transform="translate(32,862)" d="m0 0h165l10 3 11 7 8 10 4 10 1 4v13l-4 11-5 8-7 7-9 5-15 3h-155l-12-3-9-6-6-5-8-13-1-2v-23l6-11 9-10 10-6z"/>
<path transform="translate(1207,184)" d="m0 0h14l10 3 9 6 7 7 7 14 1 4v12l-4 12-12 22-14 24-15 26-14 24-16 28-9 14-7 7-14 7-4 1h-14l-11-4-9-6-6-7-6-11-1-4v-16l4-11 7-13 14-24 16-28 30-52 10-17 9-10 8-5z"/>
<path transform="translate(815,79)" d="m0 0h15l12 4 9 7 6 7 5 10 1 4v167l-4 10-5 8-9 8-8 4-8 2h-13l-12-4-8-6-8-9-5-12-1-7v-156l3-12 6-10 8-8 12-6z"/>
<path transform="translate(425,184)" d="m0 0h13l10 3 9 6 5 5 7 9 14 25 14 24 15 26 11 19 14 24 8 16 2 6v16l-5 12-7 9-10 7-12 4h-13l-12-4-8-6-8-9-14-24-16-28-14-24-16-28-14-24-6-13-1-5v-11l4-13 7-10 9-7 9-4z"/>
</svg>
