<?xml version="1.0" encoding="UTF-8"?>
<svg version="1.1" viewBox="0 0 2048 2048" width="1280" height="1280" xmlns="http://www.w3.org/2000/svg">
<path transform="translate(1301,117)" d="m0 0h33l39 3 34 5 34 8 27 8 27 10 20 9 23 11 24 14 19 12 18 13 18 14 15 13 15 14 17 17 7 8 9 10 11 14 14 19 15 23 12 21 12 23 9 20 10 26 9 28 7 28 5 27 3 23 2 26 1 39 16 9 22 13 12 8 17 12 13 10 13 11 14 12 29 29 7 8 11 13 13 17 16 23 12 20 9 16 14 28 11 27 12 36 8 33 7 40h2v107l-2 2-6 37-7 31-8 27-10 27-10 23-15 30-15 25-13 19-12 16-13 16-11 12-7 8-25 25-11 9-13 11-19 14-10 7-17 11-21 12-11 6h-2v21l-2 36-2 19-6 36-7 29-8 26-10 27-12 27-10 19-6 11-12 20-8 12-13 18-13 16-7 8-9 10-1 2h-2l-2 4-20 20-8 7-10 9-14 11-16 12-21 14-20 12-26 14-24 11-29 11-33 10-37 8-35 5-23 2h-55l-38-4-29-5-36-9-33-11-22-9-26-12-24-13-21-13-13-9-16-12-14-11-10-9-8-7-7-6v-2h-2v-2l-4-2-8-8v-2h-2l-7-8-12-13-4-5-5 1-26 11-24 8-26 6-25 4-21 2h-29l-28-3-23-4-25-7-20-7-20-9-23-12-17-11-15-11-11-9-13-12-17-17-9-11-14-18-12-19-13-24-10-24-8-24-6-26-4-28-1-12v-30l2-21 4-25 6-25 8-24 11-25 9-17 8-13 12-18-508-2-15-2-11-4-10-6-10-9-7-10-6-12-1-4v-29l9-18 8-10 10-8 12-6 10-3h153l516 1 384 1 151 1 20 2 21 5 22 8 19 10 17 12 11 9 17 17 12 16 9 15 8 16 7 20 4 16 3 20v31l-4 24-5 18-8 19-10 19-10 14-9 11-15 15-14 11-19 12-19 9-18 6-22 5-16 2h-60l-14-4-12-7-10-9-6-8-6-12-3-10-1-13 3-15 5-12 8-11 7-7 11-7 10-4 8-2 54-1 16-4 11-6 10-8 9-13 4-9 2-8v-23l-4-12-6-11-9-10-10-7-12-5-9-2-107-1-333-1-23 1-21 4-21 7-23 11-12 8-16 12-8 7-7 8-10 11-12 18-8 14-10 25-6 24-2 18v28l3 22 5 19 7 19 11 21 8 12 8 10 9 10 10 10 13 10 15 10 16 8 14 6 24 7 19 3 24 1 23-2 19-4 20-6 7-3-1-6-8-19-12-36-7-26-6-31-4-31-2-30v-20l4-16 8-15 12-12 14-8 10-3 7-1h12l14 3 12 6 9 7 9 10 8 16 2 7 1 10 1 25 4 34 6 29 7 24 10 26 11 24 12 21 7 11 12 17 13 16 9 10 7 8 13 13 8 7 17 14 20 14 20 12 23 12 20 9 36 12 26 6 25 4 19 2h47l26-3 23-4 28-7 29-10 25-11 22-12 16-10 17-12 13-10 10-9 8-7 21-21 18-22 12-17 11-18 12-22 11-25 7-20 6-20 6-27 5-35-8 2-29 4-21 2-17 1h-20l-14-3-16-8-11-10-7-10-5-11-3-12v-13l4-15 6-12 4-6h2l2-4 8-7 14-7 12-3 10-1 35-2 33-5 25-6 33-11 25-11 23-12 22-14 14-10 14-11 13-12 8-7 10-10 9-11 9-10 14-19 11-17 10-18 8-16 8-18 8-22 8-30 4-20 3-25 1-14v-36l-3-31-5-28-7-26-9-26-9-21-10-19-13-22-12-17-11-14-12-14-14-15-8-7-10-9-14-11-18-13-20-12-23-12-22-10-36-12-27-6-25-4-28-2-21-1-15-4-11-6-12-11-7-10-5-11-3-12v-12l4-16 6-12 11-12 9-7 11-5 10-3h33l34 3 27 4 5 1-3-27-5-26-9-32-11-28-13-27-10-17-10-15-10-14-11-13-9-11-22-22-11-9-15-12-27-18-16-9-17-9-29-12-25-8-25-6-24-4-18-2-18-1h-21l-29 2-27 4-29 7-30 10-23 10-27 14-22 14-21 16-13 11-4 2v2l-8 7-13 13-7 8-13 16-8 11-12 18-10 17-8 15-10 23-8 22-8 29-4 20-4 36-1 23-2 14-4 11-7 11-9 10-13 8-16 5h-21l-13-4-11-6-11-10-9-14-5-14-1-7v-18l2-32 4-31 7-34 7-26 10-30 11-28-10-3-16-5-19-4-19-2h-21l-19 2-23 5-19 7-16 8-15 9-13 10-10 9-12 12-10 13-11 17-11 23-7 22-4 20-1 11v28l3 22 6 23 10 24 8 14 12 17 11 12 3 3v2l4 2 11 10 16 11 14 8 18 8 18 6 19 4 18 2 142 1h161l142-1 14-3 14-7 10-8 9-13 4-9 2-8v-22l-4-13-6-11-9-10-10-7-12-5-9-2-49-1-13-2-11-4-10-6-10-9-7-11-5-11-2-7-1-14 3-15 8-16 5-7h2l2-4 10-7 10-5 11-3 10-1h37l28 2 23 5 15 5 18 8 17 10 16 12 10 9 13 13 12 16 9 15 8 16 7 20 5 21 2 15v30l-4 25-5 18-9 21-9 17-13 18-11 12-11 11-13 10-19 12-19 9-18 6-16 4-24 3h-1199l-16-4-11-6-10-9-6-7-6-11-4-10v-28l7-15 7-10 8-8 11-7 10-4 9-2h359l157-1-13-20-11-19-8-16-9-21-8-24-6-27-4-27-1-15v-30l3-27 5-26 7-25 10-26 12-25 13-21 12-17 13-16 14-15 9-9 8-7 15-12 14-10 21-13 19-10 19-8 30-10 22-5 26-4 12-1h41l27 3 25 5 27 8 21 8 20 9 2-4 11-12 14-16h2l2-4 17-16 10-9 11-9 21-16 21-14 13-8 19-11 26-13 32-13 33-11 28-7 26-5 31-4z"/>
<path transform="translate(298,963)" d="m0 0h1087l18 2 12 5 9 6 10 9 7 11 5 12 2 10v12l-4 16-6 11-8 10-7 6-16 8-13 3h-1103l-15-4-11-6-12-11-7-11-5-11-2-9v-16l4-15 6-11 5-7h2l2-4 13-9 13-5z"/>
<path transform="translate(1567,793)" d="m0 0h24l26 3 23 5 20 7 16 7 19 10 11 7 16 12 10 9 8 7 8 8 9 11 13 17 12 21 8 16 9 25 5 20 3 18 1 10v35l-2 17-4 20-6 21-8 20-12 23-10 15-12 16-15 16-13 12-16 12-19 12-16 8-19 8-15 5-28 6-22 3h-20l-16-4-13-7-11-10-7-10-5-11-3-11v-14l4-15 7-14 3-4h2l2-4 8-7 14-7 11-3 24-2 18-4 13-5 17-9 11-9 4-4h2l2-4 7-8 8-13 6-13 4-13 3-20v-11l-3-21-6-18-9-17-9-12-10-10-14-10-16-8-15-5-9-2-26-2-15-4-11-6-10-9-6-7-6-11-4-11-1-5v-13l4-16 6-12 9-10 8-7 16-8z"/>
</svg>
