<?xml version="1.0" encoding="UTF-8"?>
<svg version="1.1" viewBox="0 0 2048 2048" width="1280" height="1280" xmlns="http://www.w3.org/2000/svg">
<path transform="translate(1324,390)" d="m0 0h33l28 2 30 4 29 6 26 7 23 8 27 11 23 11 18 10 19 12 12 8 16 12 16 13 12 11 8 7 18 18 7 8 11 13 13 17 12 17 13 21 6 10 8 16 10 21 10 25 9 28 8 33 5 30 3 31v52l-2 25-5 33-3 12 11 2 33 11 27 12 23 12 19 12 20 14 16 13 12 11 8 7 12 12 7 8 12 14 14 19 10 15 14 24 11 22 12 30 8 26 7 32 3 17h2v94l-2 2-5 28-7 30-9 27-11 26-11 22-12 20-8 12-14 19-11 13-9 10-7 8-10 10-8 7-15 13-19 14-20 13-16 9-23 12-27 11-28 9-30 7-25 4-21 2-19 1h-1241l-31-1-31-3-28-5-30-7-36-12-20-8-26-12-22-12-22-14-17-12-14-11-14-12-10-9-13-12-14-15-7-8-11-13-14-19-12-18-12-20-12-22-14-32-10-28-9-32-6-31-5-31v-81l2-8 5-33 7-30 8-27 10-27 9-20 8-16 12-22 9-14 8-12 13-18 11-13 9-11 7-8h2l2-4 16-16 8-7 10-9 9-7 13-10 17-12 21-13 18-10 24-12 25-10 36-12 34-8 32-5 20-2 18-1h28l30 2 32 4h4l9-20 12-23 16-24 8-11 9-11 11-13 7-7 5-6 8-7 11-10 14-11 18-13 20-12 23-12 20-9 36-12 27-6 26-4 9-1 21-1h13l33 2 27 4 30 7 30 10 4 2h4l16-24 14-19 11-13 12-14 26-26 8-7 11-9 18-14 27-18 21-12 23-12 23-10 27-10 29-8 27-6 34-5zm-5 81-29 3-23 4-31 8-28 10-20 9-25 13-19 12-17 12-11 9-13 11-7 6v2l-4 2-4 4v2h-2v2h-2l-7 8-9 10-13 17-12 17-7 11-18 33-8 9-10 6-11 3h-8l-12-3-28-14-24-9-21-6-21-4-16-2-15-1h-19l-24 2-23 4-25 7-19 7-27 13-16 10-14 10-11 9-12 11-3 2v2l-3 1-7 8-10 11-11 15-10 15-13 24-10 25-8 23-9 12-12 7-8 2h-12l-25-5-22-4-25-3-23-1h-16l-30 2-27 4-26 6-20 6-22 8-24 11-21 11-19 12-14 10-18 14-16 15-5 4-7 8-9 9-9 11-12 15-10 15-7 11-12 21-11 23-11 29-9 32-5 27-3 24-1 19v24l2 26 5 32 8 32 9 26 10 23 11 22 14 23 13 18 13 16 11 12 7 8 8 8 8 7 10 9 13 10 17 12 21 13 27 14 24 10 30 10 26 6 33 5 24 2h1257l29-2 25-4 27-7 25-9 25-12 18-10 12-8 16-12 13-11 4-3v-2l4-2 10-10v-2h2l7-8 9-11 13-18 12-20 8-15 10-24 7-21 6-25 4-27 1-11v-37l-3-28-6-29-7-23-12-29-13-24-10-16-10-13-9-11-9-10-6-7-8-7-12-11-20-15-19-12-24-13-25-10-18-6-20-5-28-5-11-4-8-6-6-7-5-10-1-4v-14l8-30 6-25 4-28 1-12v-50l-3-28-6-31-8-28-8-22-9-20-8-16-10-18-15-22-10-13-9-11-12-13-18-18-11-9-16-13-21-14-15-9-27-14-24-10-27-9-25-6-22-4-29-3z"/>
</svg>
