<?xml version="1.0" encoding="UTF-8"?>
<svg version="1.1" viewBox="0 0 2048 2048" width="1280" height="1280" xmlns="http://www.w3.org/2000/svg">
<path transform="translate(1167,938)" d="m0 0h39l31 3 31 6 28 8 26 10 24 11 21 12 24 16 14 11 14 12 5 4v2l4 2 8 8 7 8 10 11 13 17 12 17 14 24 11 22 11 28 8 26 6 27 3 21 2 28v22l-2 30-4 26 29 10 29 14 16 9 16 11 13 10 14 12 8 7 5 5 12 13 9 11 11 15 9 14 12 21 10 22 8 22 7 26 5 29 2 25v23l-3 31-5 26-8 28-8 20-12 25-11 18-8 12-9 12-12 14-9 10-7 7h-2v2l-8 7-12 10-15 11-19 12-25 13-25 10-26 8-30 6-29 3h-986l-31-3-28-5-26-7-20-7-20-8-16-8-17-9-19-12-18-13-11-9-12-11-10-9-16-17-11-13-14-19-12-19-9-16-8-16-9-21-11-33-6-26-4-26-2-22v-36l3-30 5-28 8-29 7-20 11-26 10-18 6-11 9-14 10-14 11-14 13-15 23-23 11-9 18-14 15-10 15-9 23-12 20-9 25-9 27-7 20-4 21-3 13-1h47l28 3h4l9-19 12-20 12-17 12-14 1-2h2l2-4 18-18 14-11 13-10 20-12 19-10 16-7 16-6 30-8 27-4 13-1h30l21 2 27 5 28 8 8 3 2-4 7-11 10-13 8-10 10-11 1-2h2l2-4 12-12 8-7 13-11 19-14 17-11 21-12 23-11 24-9 27-8 29-6 23-3zm8 81-22 2-19 3-20 5-24 8-24 11-21 12-17 12-16 13-4 3v2l-4 2-10 10v2h-2l-18 22-7 10-8 13-13 23-7 9-9 6-9 3h-17l-11-4-23-11-24-8-19-4-23-2h-15l-22 2-23 5-23 8-20 10-18 12-11 9-10 9-10 10-8 10-8 11-9 15-8 16-7 19-6 15-6 8-10 7-9 3h-18l-29-6-26-3h-36l-26 3-27 6-24 8-18 8-16 8-18 11-15 11-11 9-12 11-12 12-9 11-4 5-11 15-9 15-8 14-10 23-8 24-6 26-3 25-1 15v14l3 31 5 26 8 26 11 26 9 17 9 14 10 14 9 11 12 13 13 13 11 9 13 10 19 12 27 14 26 10 24 6 22 4 19 2h982l26-3 22-5 23-8 21-10 18-11 17-13 13-12 13-13 10-13 12-18 12-23 9-25 5-21 3-20 1-26-2-25-5-25-5-17-11-26-10-18-12-17-9-11-21-21-17-13-16-10-21-11-18-7-22-6-26-5-10-4-10-8-6-10-3-9v-13l10-40 4-27 1-18v-13l-2-25-3-19-6-25-7-21-8-18-12-23-12-18-13-17-15-16-8-8-22-18-15-10-21-12-19-9-22-8-23-6-16-3-15-2-16-1z"/>
<path transform="translate(1468,450)" d="m0 0h50l28 3 26 5 25 7 20 7 24 10 27 14 20 13 14 10 9 7 14 12 15 14 15 16 11 14 10 13 10 15 14 24 12 25 11 29 8 29 5 26 3 25 1 20-1 36-5 38 27 9 26 12 18 10 15 10 16 12 14 12 15 14 11 12 9 11 13 18 11 18 7 12 11 24 10 30 6 24 3 16h2v82l-2 2-5 25-6 23-8 22-9 20-9 17-10 16-10 14-11 14-15 16-13 13-11 9-17 13-17 11-24 13-25 11-29 9-23 5-19 3-20 2h-19l-13-4-9-6-7-8-5-10-2-8v-9l3-11 5-9 6-7 10-6 8-3 37-3 18-3 25-7 24-10 20-11 17-12 13-11 10-9 9-10 11-14 8-12 9-16 8-17 8-24 5-23 2-17v-35l-3-22-4-18-8-24-12-25-11-18-10-13-8-9v-2h-2l-6-7-8-7-15-12-15-10-20-11-20-8-20-6-25-5-13-4-8-5-5-5-6-8-4-10-1-10 3-15 6-22 4-20 2-19v-39l-3-25-5-23-8-26-10-23-11-21-14-21-13-16-7-8-14-14-11-9-14-11-19-12-23-12-19-8-21-7-27-6-14-2-13-1h-36l-19 2-25 5-15 4-20 7-20 9-17 9-21 14-10 8-13 11-21 21-11 14-12 17-10 17-6 12-7 10-10 7-10 4-13 1-13-3-9-6-7-7-7-14-1-5v-12l4-12 11-21 13-21 12-17 9-11 12-14 5-6h2v-2h2v-2h2v-2h2v-2l8-7 11-10 10-8 15-11 20-13 24-13 24-11 22-8 25-7 30-6z"/>
<path transform="translate(728,419)" d="m0 0h20l32 2 30 4 34 7 27 8 28 10 25 11 24 12 15 9 17 11 17 12 16 13 11 9 15 14 19 19 7 8 11 13 9 12 13 18 13 21 9 16 13 26 8 19 9 25 8 28 6 28 4 26 3 35v22l-2 8-5 10-9 10-12 6-4 1h-18l-10-4-6-4-8-8-6-13-1-4-3-45-4-27-7-30-11-33-10-23-10-20-12-20-14-20-13-16-10-11-7-8-9-9-8-7-10-9-20-15-20-13-21-12-25-12-24-9-19-6-25-6-24-4-22-2-27-1-25 1-26 3-26 5-25 7-28 10-24 11-17 9-18 11-17 12-15 12-11 9-26 26-9 11-10 12-15 22-12 20-10 19-9 21-8 22-7 25-5 25-3 19-2 32v13l2 33 5 31 6 25 5 17 10 26 8 18 12 22 12 19 10 14 11 14 10 11 7 8 13 13 8 7 10 9 7 10 4 11v15l-5 13-8 10-10 6-9 3-4 1h-10l-10-3-10-6-10-9-8-7-27-27-9-11-11-13-14-19-11-17-13-22-16-32-11-28-9-27-8-32-5-29-3-27-1-16v-33l3-36 6-36 6-25 8-26 8-22 12-27 10-20 12-20 12-18 10-14 11-14 12-14 11-12 21-21 11-9 13-11 19-14 23-15 21-12 24-12 29-12 27-9 23-6 29-6 30-4z"/>
<path transform="translate(729,114)" d="m0 0h17l11 4 8 6 8 9 5 12 1 8v135l-2 12-6 12-7 8-9 5-9 3h-17l-11-4-10-8-7-11-3-8-1-7v-137l3-14 6-10 4-5 11-7z"/>
<path transform="translate(242,1094)" d="m0 0h16l11 4 9 7 6 7 5 11 1 3v16l-4 11-7 10-11 8-23 13-24 14-28 16-26 15-16 9-12 4h-12l-10-3-8-5-7-6-7-12-2-6-1-10 2-10 4-10 9-10 14-9 28-16 24-14 28-16 24-14 10-5z"/>
<path transform="translate(384,207)" d="m0 0h9l12 3 10 6 8 9 9 15 13 23 14 24 8 14 14 24 11 19 4 11 1 5v8l-3 12-7 11-8 7-8 4-7 2h-16l-11-4-8-6-7-8-9-15-15-26-16-28-11-19-14-24-7-14-2-8v-8l3-11 5-10 8-8 11-6z"/>
<path transform="translate(131,462)" d="m0 0 11 1 12 5 20 11 24 14 52 30 17 10 11 8 7 9 4 9 1 4v13l-3 10-6 10-7 7-12 6-8 2h-9l-13-4-20-11-22-13-28-16-24-14-26-15-11-10-5-8-3-8-1-10 3-14 6-10 8-8 12-6z"/>
<path transform="translate(1085,207)" d="m0 0 15 2 10 5 8 7 6 9 3 9 1 5v8l-4 14-14 24-13 23-11 19-30 52-6 8h-2v2l-9 6-12 4h-14l-10-3-9-6-8-9-5-10-1-3v-17l4-11 10-18 14-24 16-28 28-48 7-9 8-6 11-4z"/>
<path transform="translate(32,812)" d="m0 0h149l10 3 9 6 7 7 6 12 2 7v9l-3 12-7 11-8 7-8 4-7 2-9 1h-134l-12-2-10-5-8-7-7-11-2-4v-24l8-13 8-8 12-6z"/>
</svg>
