<?xml version="1.0" encoding="UTF-8"?>
<svg version="1.1" viewBox="0 0 2048 2048" width="1280" height="1280" xmlns="http://www.w3.org/2000/svg">
<path transform="translate(1015,386)" d="m0 0h19l27 1 35 3 37 5 39 8 30 8 37 12 33 13 35 16 28 15 27 16 24 16 14 10 17 13 10 8 13 11 10 9 8 7 8 8 8 7 16 17 14 15 9 11 11 13 9 12 13 18 7 10 11 17 9 15 12 21 12 23 13 28 10 25 9 25 9 29 9 36 7 37 5 40 2 30v61l-2 30-4 33-5 29-7 31-10 36-13 38-9 21-7 9-9 7-7 3-10 2-12-1-10-4-6-4-7-7-5-8-3-9v-14l5-16 6-15 12-37 9-36 7-38 4-38 1-16v-53l-3-38-4-29-8-39-10-36-12-34-12-28-14-29-14-25-15-24-12-17-12-16-13-16-9-11-8-8-7-8-26-26-8-7-15-13-13-10-19-14-21-14-21-13-24-13-16-8-24-11-31-12-28-9-31-8-36-7-31-4-24-2-21-1h-29l-33 2-35 4-33 6-32 8-35 11-31 12-27 12-19 10-20 11-21 13-19 13-16 12-18 14-11 10-8 7-13 12-19 19-7 8-9 10-6 8h-2l-2 4-7 9-12 16-14 20-17 28-9 16-8 16-13 28-12 31-10 31-8 31-6 30-4 28-3 31v70l4 41 6 35 8 34 8 27 12 33 5 14 1 6v9l-4 13-7 10-9 7-9 4-5 1h-15l-11-4-9-7-8-11-8-19-12-34-10-35-9-40-6-39-3-28-2-37v-31l2-36 4-36 6-36 9-39 10-34 11-31 12-29 13-28 10-19 15-26 16-25 13-18 10-14 13-16 9-11 10-11 7-8 2-3h2l2-4 24-24 8-7 12-11 11-9 17-14 19-14 19-13 20-13 26-15 29-15 33-15 29-11 37-12 27-7 27-6 35-6 36-4 14-1z"/>
<path transform="translate(172,1352)" d="m0 0h1691l22 1 11 4 10 8 6 9 4 10v18l-5 12-9 10-9 6-12 3h-1716l-10-3-9-6-5-5-4-5-5-11-1-13 2-10 5-10 8-9 10-6 6-2z"/>
<path transform="translate(666,1557)" d="m0 0h707l18 1 10 4 9 6 6 7 5 10 2 7v11l-3 11-8 12-11 8-13 4h-730l-11-4-6-4-5-4-7-10-4-11v-13l3-10 6-10 7-7 11-6z"/>
<path transform="translate(386,1762)" d="m0 0h561l12 2 10 5 9 8 6 10 3 10v12l-4 12-8 11-8 6-10 4-5 1h-572l-12-4-9-7-7-9-4-8-1-4v-15l3-10 7-11 9-7 11-5z"/>
<path transform="translate(1102,1762)" d="m0 0h557l11 1 10 4 8 6 7 8 4 8 2 7v13l-3 10-7 11-8 7-12 5-5 1h-569l-10-3-9-6-7-7-6-12-1-3v-18l4-11 7-9 9-7 10-4z"/>
<path transform="translate(914,1967)" d="m0 0h217l14 2 12 6 8 8 7 14 1 4v14l-4 11-6 9-8 7-12 6h-239v-2l-5-1-10-6-8-9-5-10-1-4v-16l4-11 7-10 10-7 10-4z"/>
<path transform="translate(1872,491)" d="m0 0h8l12 3 10 6 7 7 6 11 2 9v9l-3 12-7 11-7 6-15 9-28 16-26 15-24 14-28 16-24 14-23 13-13 5h-13l-10-3-10-6-7-8-6-12-1-4v-15l4-12 7-9 9-7 22-13 26-15 21-12 24-14 71-41 11-4z"/>
<path transform="translate(1510,131)" d="m0 0h12l10 3 10 6 8 9 5 10 1 3v18l-5 13-12 21-15 26-14 24-12 21-14 24-16 28-13 22-4 5-11 8-13 4h-11l-11-3-10-6-7-8-6-12-1-4v-15l5-13 16-28 14-24 16-28 15-26 10-17 16-28 11-18 8-8 10-5z"/>
<path transform="translate(167,491)" d="m0 0h9l11 3 19 10 17 10 52 30 24 14 28 16 26 15 11 8 8 11 4 11v14l-3 10-6 9-5 5-8 6-13 4h-12l-14-5-24-14-78-45-24-14-26-15-16-10-5-4-7-10-4-12v-12l3-10 4-8 4-5 11-8 9-3z"/>
<path transform="translate(525,131)" d="m0 0h12l11 3 11 7 9 11 14 25 10 17 11 19 14 24 13 23 10 17 16 28 7 12 4 11v15l-5 13-7 9-10 7-13 4h-11l-13-4-9-6v-2h-2l-7-10-90-156-7-14-2-9 1-13 5-12 5-7 11-8 8-3z"/>
<path transform="translate(1817,983)" d="m0 0h190l14 2 11 6 9 9 7 13v25l-3 3-7 10-8 7-8 4-10 2h-199l-11-3-11-7-8-11-4-9-1-5v-9l3-12 6-10 9-8 10-5z"/>
<path transform="translate(1011)" d="m0 0h28v2l10 6 8 8 6 12 1 4v204l-3 10-6 9-7 7-10 5-7 2h-16l-12-5-8-6-6-8-4-9-2-12v-191l3-14 7-11 8-7z"/>
<path transform="translate(38,983)" d="m0 0h189l15 2 10 5 4 3v2l4 2 6 9 3 9 1 10-2 12-6 11-4 5-10 7-9 3-6 1h-199l-13-4-8-6-8-9-5-10v-23l7-12 6-7 14-8z"/>
</svg>
