<?xml version="1.0" encoding="UTF-8"?>
<svg version="1.1" viewBox="0 0 2048 2048" width="1280" height="1280" xmlns="http://www.w3.org/2000/svg">
<path transform="translate(753)" d="m0 0h146l5 3 37 8 30 8 29 10 29 12 16 8 23 12 20 12 12 8 17 12 25 20 11 10 8 7 24 24 7 8 12 14 12 16 13 18 14 22 11 20 10 18 3 2 9-1 22-6 28-4 27-2h42l36 3 24 4 27 7 30 10 25 11 16 8 19 11 11 7 19 13 14 11 14 12 13 12 18 18 9 11 12 15 12 17 13 21 13 24 11 25 7 18 9 32 6 27 4 28 3 41 2 3 31 7 26 9 23 10 16 8 18 10 24 16 18 14 14 12 17 16 7 8 12 14 13 18 11 17 10 17 10 19 11 26 7 19 9 32 2 9v4l2 1 1 8 1 3 2 10h1v110h-2l-1-5-2-2-3 1-4 18-8 28-10 25-8 18-13 23-5 9-9 13-8 11-9 12-11 13-7 8-23 23-19 14-11 8-11 7-13 8-20 11-22 10-25 9-29 8-21 4-26 3-34 2-350 1h-657l-246-1-39-2-40-5-28-6-29-9-24-9-33-15-19-10-20-12-20-14-26-20-10-9-8-7-9-9-6-5-7-8-13-14-9-11-14-18-13-19-13-21-10-18-8-16-12-28-9-26-7-24-5-21v-3h-2v-9h-2v-4h-3l-2-5v-5l-1-5v-123l3 3v-6h2l1-8 6-25 7-26 12-36 12-27 11-23 14-24 12-18 7-10 10-14 10-13 16-17 8-8 6-7 8-7 8-8 11-9 15-12 19-13 20-13 27-15 23-11 33-13 49-14 2-5 3-38 6-34 8-32 8-26 10-26 12-27 10-20 12-21 10-15 7-11 12-17 10-13 12-14 11-11 7-8 16-16 8-7 12-11 17-13 14-10 15-10 16-10 23-13 22-11 32-13 33-11 30-8 24-5zm54 128-30 3-29 6-26 7-21 8-24 11-17 9-20 12-18 13-14 11-13 12-8 7-11 11-7 8-11 13-13 17-7 11-8 13-6 10-8 16-10 22-6 15-6 19-6 27-5 33-2 21v23l1 11v17l-2 15-5 15-9 13-8 9-12 6-28 6-36 7-25 6-23 8-17 7-19 10-14 8-17 11-17 13-14 12-24 24v2h-2l-8 10-9 11-11 16-10 17-14 27-11 27-5 15-7 31-4 27-2 33 2 31 4 26 6 26 5 16 8 21 11 24 10 18 10 15 10 14 14 17 11 12 10 10 8 7 16 13 18 13 20 12 23 12 18 8 20 7 26 7 32 5 35 3 25 1h1110l107-1 26-2 20-3 22-5 21-7 16-7 22-13 14-10 16-13 19-19 10-13 8-12 8-14 8-16 6-15 6-22 5-29 1-9v-25l-4-33-4-16-7-22-5-12-11-22-7-11-13-17-11-12-10-10-14-11-14-10-21-12-17-8-16-6-19-5-28-5-40-3-12-3-10-6-10-9-7-7-7-12-5-16v-17l3-22 2-14v-35l-3-25-5-25-8-26-7-16-10-20-12-19-12-16-11-12-7-8-8-7-13-11-17-12-24-14-21-10-26-10-22-5-31-4h-38l-25 3-21 5-24 8-25 10-22 8-4 1h-10l-17-5-12-6-9-8-10-14-6-12-10-25-13-29-14-25-13-20-11-15-8-10-11-13-15-15-14-13-14-11-18-13-21-13-23-12-23-10-27-10-22-6-33-6-31-3z"/>
<path transform="translate(1553,1665)" d="m0 0h27l10 3 12 6 10 9 6 7 8 14 4 10 1 5v17l-5 17-15 32-8 16-9 19-10 19-8 17-9 17-8 16-15 31-8 16-20 39-12 23-6 11-7 11-9 11-8 6-4 2 3 2v2h-3l-1 4-2 1h-50v-2l-12-9-11-9-8-9-7-11-4-13-1-12 4-18 7-17 16-33 46-92 20-41 42-84 12-16 7-6 14-8z"/>
<path transform="translate(404,1665)" d="m0 0h26l13 4 12 7 10 10 7 10 6 12 3 11v16l-4 16-9 20-8 16-8 17-8 16-13 25-9 19-9 17-11 23-24 48-10 19-12 24-12 21-9 11-4 5-13 9v3h2l-2 4h-52v-2l-11-9-13-11-8-10-7-14-3-10v-13l5-16 5-12 12-26 9-17 10-21 8-16 11-21 11-23 24-48 9-19 8-16 13-25 9-19 13-18 9-7 10-6 8-3z"/>
<path transform="translate(978,1665)" d="m0 0h27l13 4 10 6 10 9 9 12 7 15 2 8v16l-4 16-15 32-9 19-9 17-24 48-9 19-9 17-11 23-9 17-8 16-8 15-8 16-10 19-7 11-9 11-11 8-3 2 2 4-1 3h-53l-2-4-16-13-9-8-9-14-4-10-2-9v-9l4-16 7-17 15-31 8-16 10-19 11-23 36-72 12-25 9-17 10-21 8-16 6-11 9-12 5-6 14-9 10-4z"/>
<path transform="translate(790,1441)" d="m0 0h14l15 2 14 6 10 8 9 10 8 14 3 9 1 8v11l-2 13-6 16-8 16-8 17-9 17-8 16-23 47-52 104-10 19-10 18-10 13-8 7-12 7-17 4h-17l-16-4-12-6-12-11-7-10-7-14-2-6v-19l5-16 7-16 8-18 10-19 20-40 9-17 11-23 36-72 12-25 9-17 7-14 13-17 9-8 12-7 6-2z"/>
<path transform="translate(1363,1441)" d="m0 0h18l16 3 14 7 12 11 7 10 7 14 2 9v18l-4 15-17 36-19 38-11 23-10 19-8 17-9 17-11 23-8 16-17 33-8 16-13 24-8 11-7 8-10 7-13 5-10 2h-16l-14-3-11-5-10-7-7-7-11-18-4-11v-17l4-15 6-15 14-29 81-162 17-35 10-19 8-12 8-10 8-7 14-8z"/>
<path transform="translate(1937,1441)" d="m0 0h24l13 4 12 6 10 9 9 13 6 12 3 11v14l-3 13-12 27-7 16-9 17-9 19-9 17-9 19-26 52-9 17-11 23-8 16-12 23-10 19-12 16-9 8-12 7-11 3-6 1h-15l-17-4-12-6-12-11-7-10-8-16-2-13 2-14 6-18 17-36 8-15 11-23 8-16 10-19 11-23 53-106 11-21 13-16 10-7 12-6z"/>
<path transform="translate(218,1441)" d="m0 0h15l12 2 16 8 10 9 10 13 6 13 2 8v18l-3 14-8 18-40 80-8 17-9 17-11 23-8 16-9 17-11 23-9 17-8 16-11 20-8 11-6 7-10 7-10 5-13 3h-19l-12-3-10-4-12-9-8-9-8-14-5-13-1-5v-7l5-18 5-13 7-15 8-17 8-16 17-33 12-23 22-46 10-19 12-25 11-23 20-38 6-8 8-10 14-9 13-4z"/>
<path transform="translate(916)" d="m0 0h23l-1 4-7-1-5-1h-8z"/>
<path transform="translate(1403,2042)" d="m0 0 7 5v1h-6l-1-3z"/>
<path transform="translate(2046,933)" d="m0 0 2 1-1 3-3-3z"/>
<path transform="translate(2047,929)" d="m0 0 1 4-3-2h2z"/>
<path transform="translate(827,2042)" d="m0 0 3 1-3 1z"/>
<path transform="translate(1413,2046)" d="m0 0 3 2h-3z"/>
<path transform="translate(831,2046)" d="m0 0 2 2h-2z"/>
<path transform="translate(837,2046)" d="m0 0 1 2-2-1z"/>
<path transform="translate(911,3)" d="m0 0 3 1z"/>
<path transform="translate(2043,935)" d="m0 0"/>
<path transform="translate(2047,917)" d="m0 0"/>
<path transform="translate(2,834)" d="m0 0"/>
<path transform="translate(912)" d="m0 0"/>
<path transform="translate(742)" d="m0 0 2 1z"/>
<path transform="translate(839,2047)" d="m0 0"/>
<path transform="translate(260,2047)" d="m0 0"/>
<path transform="translate(1416,2046)" d="m0 0"/>
<path transform="translate(830,2045)" d="m0 0"/>
<path transform="translate(897,2042)" d="m0 0"/>
<path transform="translate(252,2042)" d="m0 0"/>
<path transform="translate(894,2040)" d="m0 0"/>
<path transform="translate(2040,1061)" d="m0 0"/>
<path transform="translate(0,962)" d="m0 0"/>
<path transform="translate(2047,953)" d="m0 0"/>
<path transform="translate(2047,921)" d="m0 0"/>
<path transform="translate(908)" d="m0 0"/>
</svg>
